<?xml version="1.0" standalone="no"?><svg xmlns="http://www.w3.org/2000/svg" viewBox="0 0 1440 320"><path fill="#ffffff" fill-opacity="1" d="M0,224L17.1,208C34.3,192,69,160,103,133.3C137.1,107,171,85,206,96C240,107,274,149,309,186.7C342.9,224,377,256,411,224C445.7,192,480,96,514,74.7C548.6,53,583,107,617,128C651.4,149,686,139,720,133.3C754.3,128,789,128,823,144C857.1,160,891,192,926,181.3C960,171,994,117,1029,122.7C1062.9,128,1097,192,1131,197.3C1165.7,203,1200,149,1234,128C1268.6,107,1303,117,1337,133.3C1371.4,149,1406,171,1423,181.3L1440,192L1440,0L1422.9,0C1405.7,0,1371,0,1337,0C1302.9,0,1269,0,1234,0C1200,0,1166,0,1131,0C1097.1,0,1063,0,1029,0C994.3,0,960,0,926,0C891.4,0,857,0,823,0C788.6,0,754,0,720,0C685.7,0,651,0,617,0C582.9,0,549,0,514,0C480,0,446,0,411,0C377.1,0,343,0,309,0C274.3,0,240,0,206,0C171.4,0,137,0,103,0C68.6,0,34,0,17,0L0,0Z"></path></svg>