<?xml version="1.0" standalone="no"?><svg xmlns="http://www.w3.org/2000/svg" viewBox="0 0 1440 320"><path fill="#ececec" fill-opacity="1" d="M0,32L34.3,48C68.6,64,137,96,206,96C274.3,96,343,64,411,64C480,64,549,96,617,96C685.7,96,754,64,823,48C891.4,32,960,32,1029,37.3C1097.1,43,1166,53,1234,64C1302.9,75,1371,85,1406,90.7L1440,96L1440,0L1405.7,0C1371.4,0,1303,0,1234,0C1165.7,0,1097,0,1029,0C960,0,891,0,823,0C754.3,0,686,0,617,0C548.6,0,480,0,411,0C342.9,0,274,0,206,0C137.1,0,69,0,34,0L0,0Z"></path></svg>