<?xml version="1.0" standalone="no"?><svg xmlns="http://www.w3.org/2000/svg" viewBox="0 0 1440 320"><path fill="#ffffff" fill-opacity="1" d="M0,224L20,208C40,192,80,160,120,149.3C160,139,200,149,240,170.7C280,192,320,224,360,224C400,224,440,192,480,176C520,160,560,160,600,160C640,160,680,160,720,170.7C760,181,800,203,840,202.7C880,203,920,181,960,176C1000,171,1040,181,1080,181.3C1120,181,1160,171,1200,160C1240,149,1280,139,1320,149.3C1360,160,1400,192,1420,208L1440,224L1440,0L1420,0C1400,0,1360,0,1320,0C1280,0,1240,0,1200,0C1160,0,1120,0,1080,0C1040,0,1000,0,960,0C920,0,880,0,840,0C800,0,760,0,720,0C680,0,640,0,600,0C560,0,520,0,480,0C440,0,400,0,360,0C320,0,280,0,240,0C200,0,160,0,120,0C80,0,40,0,20,0L0,0Z"></path></svg>