<?xml version="1.0" standalone="no"?><svg xmlns="http://www.w3.org/2000/svg" viewBox="0 0 1440 320"><path fill="#ececec" fill-opacity="1" d="M0,96L16,112C32,128,64,160,96,165.3C128,171,160,149,192,122.7C224,96,256,64,288,64C320,64,352,96,384,101.3C416,107,448,85,480,96C512,107,544,149,576,160C608,171,640,149,672,122.7C704,96,736,64,768,64C800,64,832,96,864,106.7C896,117,928,107,960,90.7C992,75,1024,53,1056,42.7C1088,32,1120,32,1152,37.3C1184,43,1216,53,1248,85.3C1280,117,1312,171,1344,160C1376,149,1408,75,1424,37.3L1440,0L1440,0L1424,0C1408,0,1376,0,1344,0C1312,0,1280,0,1248,0C1216,0,1184,0,1152,0C1120,0,1088,0,1056,0C1024,0,992,0,960,0C928,0,896,0,864,0C832,0,800,0,768,0C736,0,704,0,672,0C640,0,608,0,576,0C544,0,512,0,480,0C448,0,416,0,384,0C352,0,320,0,288,0C256,0,224,0,192,0C160,0,128,0,96,0C64,0,32,0,16,0L0,0Z"></path></svg>